<mxfile host="Electron" agent="Mozilla/5.0 (Windows NT 10.0; Win64; x64) AppleWebKit/537.36 (KHTML, like Gecko) draw.io/23.1.5 Chrome/120.0.6099.109 Electron/28.1.0 Safari/537.36" modified="2024-09-09T06:32:45.201Z" etag="9Op60pbhDpzdVp6RL8JU" version="23.1.5" type="device">
  <diagram name="Page-1" id="c9db0220-8083-56f3-ca83-edcdcd058819">
    <mxGraphModel dx="1434" dy="844" grid="1" gridSize="10" guides="1" tooltips="1" connect="1" arrows="1" fold="1" page="1" pageScale="1.5" pageWidth="826" pageHeight="1169" background="none" math="0" shadow="0">
      <root>
        <mxCell id="0" style=";html=1;" />
        <mxCell id="1" style=";html=1;" parent="0" />
        <mxCell id="3d76a8aef4d5c911-1" value="" style="html=1;shadow=0;dashed=0;shape=mxgraph.bootstrap.rect;fillColor=#FFFFFF;strokeColor=default;whiteSpace=wrap;rounded=0;fontSize=12;fontColor=#000000;align=center;" parent="1" vertex="1">
          <mxGeometry x="40" y="40" width="1160" height="80" as="geometry" />
        </mxCell>
        <mxCell id="3d76a8aef4d5c911-2" value="Power 4 You" style="html=1;shadow=0;dashed=0;fillColor=none;strokeColor=none;shape=mxgraph.bootstrap.rect;fontColor=#999999;fontSize=14;whiteSpace=wrap;" parent="3d76a8aef4d5c911-1" vertex="1">
          <mxGeometry x="120" width="120" height="80" as="geometry" />
        </mxCell>
        <mxCell id="eWDx96z-mO7fNsTrTuTu-28" value="" style="html=1;shadow=0;dashed=0;shape=mxgraph.bootstrap.checkbox2;labelPosition=right;verticalLabelPosition=middle;align=left;verticalAlign=middle;gradientColor=#DEDEDE;fillColor=#EDEDED;checked=0;spacing=5;checkedFill=#0085FC;checkedStroke=#ffffff;sketch=0;" parent="3d76a8aef4d5c911-1" vertex="1">
          <mxGeometry x="20.870000000000005" y="20" width="80" height="40" as="geometry" />
        </mxCell>
        <mxCell id="eWDx96z-mO7fNsTrTuTu-10" value="" style="html=1;shadow=0;dashed=0;shape=mxgraph.bootstrap.rect;fillColor=#FFFFFF;strokeColor=default;whiteSpace=wrap;rounded=0;fontSize=12;fontColor=#000000;align=center;" parent="1" vertex="1">
          <mxGeometry x="40" y="800" width="1160" height="40" as="geometry" />
        </mxCell>
        <mxCell id="eWDx96z-mO7fNsTrTuTu-12" value="" style="html=1;shadow=0;dashed=0;shape=mxgraph.bootstrap.radioButton2;labelPosition=right;verticalLabelPosition=middle;align=left;verticalAlign=middle;gradientColor=#DEDEDE;fillColor=#EDEDED;checked=0;spacing=5;checkedFill=#0085FC;checkedStroke=#ffffff;sketch=0;" parent="eWDx96z-mO7fNsTrTuTu-10" vertex="1">
          <mxGeometry x="1119.6521739130435" y="5" width="30.26086956521739" height="30" as="geometry" />
        </mxCell>
        <mxCell id="eWDx96z-mO7fNsTrTuTu-16" value="" style="html=1;shadow=0;dashed=0;shape=mxgraph.bootstrap.radioButton2;labelPosition=right;verticalLabelPosition=middle;align=left;verticalAlign=middle;gradientColor=#DEDEDE;fillColor=#EDEDED;checked=0;spacing=5;checkedFill=#0085FC;checkedStroke=#ffffff;sketch=0;" parent="eWDx96z-mO7fNsTrTuTu-10" vertex="1">
          <mxGeometry x="20" y="5" width="30" height="30" as="geometry" />
        </mxCell>
        <mxCell id="eWDx96z-mO7fNsTrTuTu-17" value="" style="html=1;shadow=0;dashed=0;shape=mxgraph.bootstrap.radioButton2;labelPosition=right;verticalLabelPosition=middle;align=left;verticalAlign=middle;gradientColor=#DEDEDE;fillColor=#EDEDED;checked=0;spacing=5;checkedFill=#0085FC;checkedStroke=#ffffff;sketch=0;" parent="eWDx96z-mO7fNsTrTuTu-10" vertex="1">
          <mxGeometry x="70" y="5" width="30" height="30" as="geometry" />
        </mxCell>
        <mxCell id="eWDx96z-mO7fNsTrTuTu-18" value="" style="html=1;shadow=0;dashed=0;shape=mxgraph.bootstrap.radioButton2;labelPosition=right;verticalLabelPosition=middle;align=left;verticalAlign=middle;gradientColor=#DEDEDE;fillColor=#EDEDED;checked=0;spacing=5;checkedFill=#0085FC;checkedStroke=#ffffff;sketch=0;" parent="eWDx96z-mO7fNsTrTuTu-10" vertex="1">
          <mxGeometry x="120" y="5" width="30" height="30" as="geometry" />
        </mxCell>
        <mxCell id="eWDx96z-mO7fNsTrTuTu-21" value="Power 4 You" style="html=1;shadow=0;dashed=0;fillColor=none;strokeColor=none;shape=mxgraph.bootstrap.rect;fontColor=#999999;fontSize=14;whiteSpace=wrap;" parent="eWDx96z-mO7fNsTrTuTu-10" vertex="1">
          <mxGeometry x="989.9960869565216" width="116" height="40" as="geometry" />
        </mxCell>
        <mxCell id="eWDx96z-mO7fNsTrTuTu-20" value="AGB" style="html=1;shadow=0;dashed=0;fillColor=none;strokeColor=none;shape=mxgraph.bootstrap.rect;fontColor=#999999;fontSize=14;whiteSpace=wrap;" parent="eWDx96z-mO7fNsTrTuTu-10" vertex="1">
          <mxGeometry x="660" width="80" height="40" as="geometry" />
        </mxCell>
        <mxCell id="eWDx96z-mO7fNsTrTuTu-15" value="Datenschutz" style="html=1;shadow=0;dashed=0;fillColor=none;strokeColor=none;shape=mxgraph.bootstrap.rect;fontColor=#999999;fontSize=14;whiteSpace=wrap;" parent="eWDx96z-mO7fNsTrTuTu-10" vertex="1">
          <mxGeometry x="540" width="120" height="40" as="geometry" />
        </mxCell>
        <mxCell id="eWDx96z-mO7fNsTrTuTu-14" value="Impressum" style="html=1;shadow=0;dashed=0;fillColor=none;strokeColor=none;shape=mxgraph.bootstrap.rect;fontColor=#999999;fontSize=14;whiteSpace=wrap;" parent="eWDx96z-mO7fNsTrTuTu-10" vertex="1">
          <mxGeometry x="420" width="120" height="40" as="geometry" />
        </mxCell>
        <mxCell id="eWDx96z-mO7fNsTrTuTu-22" value="" style="endArrow=none;html=1;rounded=0;" parent="eWDx96z-mO7fNsTrTuTu-10" edge="1">
          <mxGeometry width="50" height="50" relative="1" as="geometry">
            <mxPoint x="540" y="30" as="sourcePoint" />
            <mxPoint x="540" y="10" as="targetPoint" />
          </mxGeometry>
        </mxCell>
        <mxCell id="eWDx96z-mO7fNsTrTuTu-23" value="" style="endArrow=none;html=1;rounded=0;" parent="eWDx96z-mO7fNsTrTuTu-10" edge="1">
          <mxGeometry width="50" height="50" relative="1" as="geometry">
            <mxPoint x="659" y="30" as="sourcePoint" />
            <mxPoint x="659" y="10" as="targetPoint" />
          </mxGeometry>
        </mxCell>
        <mxCell id="9RABoqaH_rfDE8g-xP_C-2" value="" style="rounded=0;whiteSpace=wrap;html=1;" parent="1" vertex="1">
          <mxGeometry x="40" y="120" width="1160" height="680" as="geometry" />
        </mxCell>
        <mxCell id="9RABoqaH_rfDE8g-xP_C-3" value="Login/KDNR" style="text;html=1;align=center;verticalAlign=middle;whiteSpace=wrap;rounded=0;" parent="1" vertex="1">
          <mxGeometry x="475" y="330" width="70" height="30" as="geometry" />
        </mxCell>
        <mxCell id="9RABoqaH_rfDE8g-xP_C-4" value="" style="rounded=1;whiteSpace=wrap;html=1;" parent="1" vertex="1">
          <mxGeometry x="475" y="360" width="290" height="30" as="geometry" />
        </mxCell>
        <mxCell id="9RABoqaH_rfDE8g-xP_C-5" value="Passwort" style="text;html=1;align=center;verticalAlign=middle;whiteSpace=wrap;rounded=0;" parent="1" vertex="1">
          <mxGeometry x="475" y="400" width="60" height="30" as="geometry" />
        </mxCell>
        <mxCell id="9RABoqaH_rfDE8g-xP_C-6" value="" style="rounded=1;whiteSpace=wrap;html=1;" parent="1" vertex="1">
          <mxGeometry x="475" y="430" width="290" height="30" as="geometry" />
        </mxCell>
        <mxCell id="9RABoqaH_rfDE8g-xP_C-7" value="Login" style="rounded=1;whiteSpace=wrap;html=1;" parent="1" vertex="1">
          <mxGeometry x="645" y="470" width="120" height="40" as="geometry" />
        </mxCell>
        <mxCell id="9RABoqaH_rfDE8g-xP_C-8" value="Passwort vergessen?" style="text;html=1;align=center;verticalAlign=middle;whiteSpace=wrap;rounded=0;" parent="1" vertex="1">
          <mxGeometry x="480" y="475" width="135" height="30" as="geometry" />
        </mxCell>
        <mxCell id="9RABoqaH_rfDE8g-xP_C-9" value="" style="html=1;shadow=0;dashed=0;shape=mxgraph.bootstrap.checkbox2;labelPosition=right;verticalLabelPosition=middle;align=left;verticalAlign=middle;gradientColor=#DEDEDE;fillColor=#EDEDED;checked=0;spacing=5;checkedFill=#0085FC;checkedStroke=#ffffff;sketch=0;" parent="1" vertex="1">
          <mxGeometry x="477" y="170" width="285" height="80" as="geometry" />
        </mxCell>
        <mxCell id="9RABoqaH_rfDE8g-xP_C-10" value="Power 4 You" style="html=1;shadow=0;dashed=0;fillColor=none;strokeColor=none;shape=mxgraph.bootstrap.rect;fontColor=#999999;fontSize=14;whiteSpace=wrap;" parent="1" vertex="1">
          <mxGeometry x="475" y="240" width="285" height="80" as="geometry" />
        </mxCell>
      </root>
    </mxGraphModel>
  </diagram>
</mxfile>
